<svg width="108" height="108" viewBox="0 0 108 108" fill="none" xmlns="http://www.w3.org/2000/svg">
<rect y="0.000732422" width="108" height="108" rx="54" fill="url(#paint0_linear_224_1151)"/>
<rect x="11" y="11.0007" width="86" height="86" rx="43" fill="white"/>
<path d="M63.0783 32.334H44.9217C37.035 32.334 32.3333 37.0357 32.3333 44.9223V63.0573C32.3333 70.9657 37.035 75.6673 44.9217 75.6673H63.0567C70.9433 75.6673 75.645 70.9657 75.645 63.079V44.9223C75.6667 37.0357 70.965 32.334 63.0783 32.334ZM52.9817 57.3157L44.9217 65.3757H49.6667C50.555 65.3757 51.2917 66.1123 51.2917 67.0007C51.2917 67.889 50.555 68.6257 49.6667 68.6257H41C40.7833 68.6257 40.5667 68.5823 40.3717 68.4957C39.9817 68.3223 39.6567 68.019 39.4833 67.6073C39.4183 67.4123 39.375 67.2173 39.375 67.0007V58.334C39.375 57.4457 40.1117 56.709 41 56.709C41.8883 56.709 42.625 57.4457 42.625 58.334V63.079L50.685 55.019C51.3133 54.3907 52.3533 54.3907 52.9817 55.019C53.61 55.6473 53.61 56.6873 52.9817 57.3157ZM68.625 49.6673C68.625 50.5557 67.8883 51.2923 67 51.2923C66.1117 51.2923 65.375 50.5557 65.375 49.6673V44.9223L57.315 52.9823C56.99 53.3073 56.5783 53.459 56.1667 53.459C55.755 53.459 55.3433 53.3073 55.0183 52.9823C54.39 52.354 54.39 51.314 55.0183 50.6857L63.0783 42.6257H58.3333C57.445 42.6257 56.7083 41.889 56.7083 41.0007C56.7083 40.1123 57.445 39.3757 58.3333 39.3757H67C67.2167 39.3757 67.4117 39.419 67.6283 39.5057C68.0183 39.679 68.3433 39.9823 68.5167 40.394C68.5817 40.589 68.625 40.784 68.625 41.0007V49.6673Z" fill="url(#paint1_linear_224_1151)"/>
<rect x="11" y="11.0007" width="86" height="86" rx="43" stroke="url(#paint2_linear_224_1151)" stroke-width="2"/>
<defs>
<linearGradient id="paint0_linear_224_1151" x1="6.3245e-07" y1="53.5053" x2="108" y2="53.5053" gradientUnits="userSpaceOnUse">
<stop stop-color="white"/>
<stop offset="1" stop-color="white" stop-opacity="0"/>
</linearGradient>
<linearGradient id="paint1_linear_224_1151" x1="75.6451" y1="75.6673" x2="26.3714" y2="67.255" gradientUnits="userSpaceOnUse">
<stop stop-color="#00796D"/>
<stop offset="1" stop-color="#38C682"/>
</linearGradient>
<linearGradient id="paint2_linear_224_1151" x1="98" y1="98.0007" x2="-2.11054" y2="80.9007" gradientUnits="userSpaceOnUse">
<stop stop-color="#00796D"/>
<stop offset="1" stop-color="#38C682"/>
</linearGradient>
</defs>
</svg>
